<?xml version="1.0" encoding="UTF-8"?>
<svg width="134px" height="22px" viewBox="0 0 134 22" version="1.1" xmlns="http://www.w3.org/2000/svg" xmlns:xlink="http://www.w3.org/1999/xlink">
    <!-- Generator: Sketch 54.1 (76490) - https://sketchapp.com -->
    <title>Contract.fit_zonder vlammetje Copy</title>
    <desc>Created with Sketch.</desc>
    <defs>
        <polygon id="path-1" points="3.09442337e-16 0 133.105263 0 133.105263 21.1631799 3.09442337e-16 21.1631799"></polygon>
    </defs>
    <g id="Symbols" stroke="none" stroke-width="1" fill="none" fill-rule="evenodd">
        <g id="Footer-blue" transform="translate(-139.000000, -226.000000)">
            <g id="footer" transform="translate(135.000000, 213.000000)">
                <g id="Contract.fit_zonder-vlammetje-Copy" transform="translate(4.000000, 13.000000)">
                    <mask id="mask-2" fill="white">
                        <use xlink:href="#path-1"></use>
                    </mask>
                    <g id="Clip-2"></g>
                    <path d="M0,15.0660964 C0,14.2106883 0.16276596,13.4083372 0.489099024,12.6595844 C0.815031516,11.9111023 1.25606184,11.2592597 1.81285762,10.7051393 C2.36898577,10.1506129 3.01190464,9.71316372 3.74121364,9.39225034 C4.47012207,9.07147231 5.23761898,8.9108126 6.04317028,8.9108126 C6.92536445,8.9108126 7.70728197,9.08595469 8.3886558,9.43610354 C9.06949552,9.78598169 9.6787663,10.3016628 10.215934,10.9820642 C10.3120714,11.118361 10.3501258,11.2642676 10.3311654,11.4195134 C10.3120714,11.5755712 10.235028,11.7017168 10.1013703,11.7988977 L9.15161289,12.6740668 C8.97883261,12.8301246 8.83476004,12.8737071 8.71952868,12.8052203 C8.60443085,12.7375456 8.48933302,12.6549825 8.37463576,12.5573956 C8.10531751,12.2655823 7.77444463,12.0082832 7.38134948,11.7844153 C6.98798728,11.5609535 6.55136326,11.4487488 6.07214502,11.4487488 C5.61162017,11.4487488 5.17512967,11.5413278 4.76253999,11.7260797 C4.35008384,11.9111023 3.9951766,12.1686722 3.69768476,12.49906 C3.40032644,12.8301246 3.16559095,13.2138401 2.99281068,13.6512893 C2.82003041,14.0890092 2.73390732,14.5512273 2.73390732,15.0369963 C2.73390732,15.5430676 2.82003041,16.0143541 2.99281068,16.4518033 C3.16559095,16.8895232 3.40032644,17.2736448 3.69768476,17.604168 C3.9951766,17.9350972 4.34554402,18.1926671 4.74851995,18.3771483 C5.15109532,18.5623062 5.583046,18.6542085 6.04317028,18.6542085 C6.40769125,18.6542085 6.72414353,18.6106259 6.99292768,18.5230549 C7.26131125,18.4354839 7.49658084,18.3288285 7.69820233,18.2020062 C7.89955677,18.0759959 8.08181726,17.9350972 8.24498379,17.7790394 C8.40774975,17.6237936 8.56597589,17.4681418 8.71952868,17.31249 C8.96895183,17.0599281 9.22785519,17.0404378 9.49663933,17.2540191 L10.2736165,17.8958459 C10.5999495,18.1685749 10.6665781,18.4406271 10.475238,18.712544 C10.0147131,19.4519577 9.40544233,20.0449233 8.64795973,20.4921177 C7.88954246,20.9394474 7.01188811,21.1631799 6.01459611,21.1631799 C5.20864423,21.1631799 4.44114732,21.0071221 3.71223889,20.6963599 C2.98292989,20.3854624 2.34548552,19.9624956 1.79830348,19.4274595 C1.25165554,18.8926941 0.815031516,18.2510026 0.489099024,17.5019792 C0.16276596,16.7536324 0,15.9412655 0,15.0660964" id="Fill-1" fill="#FFFFFF" mask="url(#mask-2)"></path>
                    <path d="M15.9427162,15.0077608 C15.9427162,15.5138321 16.02975,15.9851187 16.2035491,16.4225679 C16.3772139,16.8602878 16.6083639,17.2444093 16.8979395,17.5750678 C17.1875151,17.9058617 17.5300094,18.1685749 17.9258253,18.3626659 C18.321104,18.5572983 18.7506322,18.6542085 19.2140068,18.6542085 C19.6772471,18.6542085 20.1063723,18.5572983 20.502054,18.3626659 C20.897467,18.1685749 21.2403643,17.9058617 21.5299398,17.5750678 C21.8191125,17.2444093 22.0506655,16.8602878 22.2244645,16.4225679 C22.3981293,15.9851187 22.4852974,15.5138321 22.4852974,15.0077608 C22.4852974,14.5219919 22.3981293,14.0597737 22.2244645,13.6223245 C22.0506655,13.1846046 21.8191125,12.8052203 21.5299398,12.4845776 C21.2403643,12.1635289 20.897467,11.9111023 20.502054,11.7260797 C20.1063723,11.5413278 19.6772471,11.4487488 19.2140068,11.4487488 C18.7506322,11.4487488 18.321104,11.5413278 17.9258253,11.7260797 C17.5300094,11.9111023 17.1875151,12.1635289 16.8979395,12.4845776 C16.6083639,12.8052203 16.3772139,13.1846046 16.2035491,13.6223245 C16.02975,14.0597737 15.9427162,14.5219919 15.9427162,15.0077608 Z M13.3662189,15.0077608 C13.3662189,14.1909273 13.5204085,13.4134804 13.8295935,12.6740668 C14.1378384,11.9351945 14.5532638,11.2883598 15.0743924,10.7342395 C15.5952524,10.1798484 16.212548,9.73779731 16.9270851,9.40686808 C17.6408163,9.07620954 18.4031684,8.9108126 19.2140068,8.9108126 C20.0241737,8.9108126 20.78666,9.07620954 21.5006599,9.40686808 C22.2143912,9.73779731 22.832224,10.1798484 23.3534869,10.7342395 C23.8746155,11.2883598 24.2891007,11.9351945 24.5982858,12.6740668 C24.9065307,13.4134804 25.0616604,14.1909273 25.0616604,15.0077608 C25.0616604,15.84422 24.9065307,16.6369613 24.5982858,17.385308 C24.2891007,18.1343315 23.8746155,18.7856327 23.3534869,19.3398884 C22.832224,19.8942795 22.2143912,20.3367366 21.5006599,20.6671244 C20.78666,20.997783 20.0241737,21.1631799 19.2140068,21.1631799 C18.4031684,21.1631799 17.6408163,20.997783 16.9270851,20.6671244 C16.212548,20.3367366 15.5952524,19.8942795 15.0743924,19.3398884 C14.5532638,18.7856327 14.1378384,18.1343315 13.8295935,17.385308 C13.5204085,16.6369613 13.3662189,15.84422 13.3662189,15.0077608 L13.3662189,15.0077608 Z" id="Fill-3" fill="#FFFFFF" mask="url(#mask-2)"></path>
                    <path d="M28.9601409,9.77752394 C28.9601409,9.61835187 29.0133036,9.48372114 29.1200336,9.3740477 C29.2263589,9.26479021 29.3573764,9.20988416 29.5125466,9.20988416 L30.3559973,9.20988416 C30.6079126,9.20988416 30.7632177,9.32940187 30.8213728,9.56815998 L31.170438,10.5843378 C31.2285931,10.5244403 31.3643332,10.4051999 31.5777933,10.2259233 C31.7907137,10.0465081 32.0720439,9.85752593 32.4211092,9.65786758 C32.7700396,9.45904114 33.1814428,9.28447874 33.656938,9.13487363 C34.1316236,8.98568448 34.6602814,8.9108126 35.241967,8.9108126 C36.133453,8.9108126 36.885286,9.06027905 37.4958466,9.35921197 C38.1064073,9.65786758 38.6053804,10.0664739 38.9933057,10.5843378 C39.3809612,11.1026176 39.6621564,11.7051976 39.8367565,12.392355 C40.0112217,13.0796512 40.0986567,13.8118704 40.0986567,14.5887355 L40.0986567,20.5955401 C40.0986567,20.7551282 40.0446845,20.8894816 39.9383592,20.9988777 C39.8316292,21.1085512 39.7011513,21.1631799 39.5458463,21.1631799 L37.8884945,21.1631799 C37.7331895,21.1631799 37.6021719,21.1085512 37.4958466,20.9988777 C37.3891166,20.8894816 37.335954,20.7551282 37.335954,20.5955401 L37.335954,14.4692178 C37.335954,13.5129375 37.1219541,12.7809956 36.6959784,12.2728373 C36.2690582,11.7649564 35.6780625,11.5106693 34.9217768,11.5106693 C34.4568062,11.5106693 34.0350133,11.5855412 33.656938,11.7350077 C33.2789975,11.8841968 32.9488225,12.0588979 32.6680321,12.2580016 C32.3867019,12.4573827 32.1636617,12.6566251 31.9991814,12.8555901 C31.8341614,13.0548325 31.7325587,13.2044377 31.6941035,13.3037122 L31.6941035,20.5955401 C31.6941035,20.9741977 31.4710633,21.1631799 31.0252528,21.1631799 L29.5125466,21.1631799 C29.3573764,21.1631799 29.2263589,21.1085512 29.1200336,20.9988777 C29.0133036,20.8894816 28.9601409,20.7551282 28.9601409,20.5955401 L28.9601409,9.77752394" id="Fill-4" fill="#FFFFFF" mask="url(#mask-2)"></path>
                    <path d="M45.1904456,11.4009494 L43.9854122,11.4009494 C43.832037,11.4009494 43.702893,11.3463754 43.5979801,11.2368119 C43.4926678,11.127664 43.4402114,10.9931683 43.4402114,10.8337402 L43.4402114,9.49030639 C43.4402114,9.11244398 43.621945,8.92323574 43.9854122,8.92323574 L45.1904456,8.92323574 L45.1904456,5.60932145 C45.1904456,5.45030897 45.2429021,5.31609025 45.3482143,5.20624975 C45.4535266,5.09710181 45.5822712,5.0421123 45.7355132,5.0421123 L47.3713818,5.01233209 C47.5240912,5.01233209 47.6484423,5.06732159 47.7443018,5.17633102 C47.8400281,5.28617152 47.8879578,5.42039025 47.8879578,5.57940273 L47.8879578,8.92323574 L50.8147339,8.92323574 C51.1782011,8.92323574 51.3598016,9.11244398 51.3598016,9.49030639 L51.3598016,10.8337402 C51.3598016,10.9931683 51.3070789,11.127664 51.202166,11.2368119 C51.0968537,11.3463754 50.9675766,11.4009494 50.8147339,11.4009494 L47.8879578,11.4009494 L47.8879578,17.3121137 C47.8879578,17.8297353 47.9738319,18.1582873 48.1461127,18.2972154 C48.3182604,18.4366976 48.5380715,18.506231 48.8060786,18.506231 C49.1120301,18.506231 49.4375528,18.4418226 49.7818481,18.3120363 C50.1262765,18.1829425 50.3844314,18.0686696 50.5567122,17.968802 C50.747366,17.8694885 50.8911552,17.8545291 50.9870147,17.9240624 C51.0823416,17.9938728 51.1591624,18.0985883 51.2165449,18.2375165 L51.7332541,19.5508931 C51.8666585,19.8694721 51.7807844,20.1084064 51.4746998,20.2675574 C51.3982785,20.3075875 51.2450365,20.3771208 51.0159057,20.4764344 C50.7862424,20.576302 50.5137086,20.675754 50.1977717,20.7750676 C49.8822343,20.8745196 49.5423326,20.9639988 49.179398,21.043782 C48.8155314,21.1230113 48.461517,21.1631799 48.1176212,21.1631799 C47.5435294,21.1631799 47.0698239,21.0782717 46.697037,20.9092863 C46.324117,20.7404394 46.0270858,20.4966572 45.8074078,20.1779397 C45.5873305,19.8599147 45.4295618,19.4867617 45.3341017,19.0583422 C45.2378428,18.6306153 45.1904456,18.1478988 45.1904456,17.6106084 L45.1904456,11.4009494" id="Fill-5" fill="#FFFFFF" mask="url(#mask-2)"></path>
                    <path d="M55.6925787,9.77752394 C55.6925787,9.61835187 55.7458286,9.48372114 55.8527337,9.3740477 C55.9590982,9.26479021 56.0903307,9.20988416 56.2458905,9.20988416 L57.0907249,9.20988416 C57.342648,9.20988416 57.5082091,9.3493677 57.5857863,9.62805748 L57.9059611,10.6440966 C57.9643467,10.5647879 58.0712518,10.4304345 58.2268116,10.240759 C58.3818309,10.0516382 58.6002363,9.85752593 58.882028,9.65786758 C59.163279,9.45904114 59.5083218,9.28447874 59.9162102,9.13487363 C60.3242337,8.98568448 60.7898319,8.9108126 61.3143564,8.9108126 C61.5860116,8.9108126 61.8676682,8.93105573 62.1590556,8.97057145 C62.4504431,9.01091907 62.7023662,9.07539208 62.9165819,9.16482238 C63.1299867,9.25452999 63.2901417,9.36933354 63.3970468,9.50867843 C63.5034114,9.64830062 63.5181429,9.81773291 63.4407009,10.0165594 L62.7418305,11.4807206 C62.6638479,11.6405859 62.5619434,11.7399991 62.4358467,11.7797921 C62.3092094,11.8200011 62.1783823,11.8096022 62.0425547,11.7498434 C61.9452453,11.7103277 61.8044171,11.6652659 61.6203402,11.61549 C61.4354524,11.5659913 61.2459695,11.5406181 61.0522969,11.5406181 C60.6246763,11.5406181 60.2558468,11.605507 59.9451327,11.7350077 C59.6345536,11.8646469 59.3724941,12.0141134 59.1586839,12.1831297 C58.9448736,12.352562 58.7751228,12.5171415 58.648891,12.6761749 C58.5226591,12.8360403 58.4498122,12.9451591 58.4304855,13.0050566 L58.4304855,20.5955401 C58.4304855,20.85468 58.3575035,21.0137135 58.2120801,21.073611 C58.0666567,21.1333698 57.8771737,21.1631799 57.6440367,21.1631799 L56.2458905,21.1631799 C56.0903307,21.1631799 55.9590982,21.1085512 55.8527337,20.9988777 C55.7458286,20.8894816 55.6925787,20.7551282 55.6925787,20.5955401 L55.6925787,9.77752394" id="Fill-6" fill="#FFFFFF" mask="url(#mask-2)"></path>
                    <path d="M67.6870686,17.224919 C67.6870686,17.7499392 67.8467508,18.1926671 68.1659804,18.5522904 C68.4858838,18.9121844 68.9162845,19.0919283 69.4585302,19.0919283 C69.7489227,19.0919283 70.0293435,19.043744 70.3007358,18.9460217 C70.5719934,18.8491116 70.823577,18.7272971 71.0560258,18.5813905 C71.2884745,18.4354839 71.4915471,18.2801028 71.6657826,18.1147058 C71.8401529,17.9495796 71.9755795,17.7891906 72.0726016,17.6334034 L72.0726016,15.7663941 C71.9755795,15.7080585 71.7431308,15.6158856 71.3753901,15.4890632 C71.0075147,15.3629176 70.5624259,15.2994387 70.0394499,15.2994387 C69.3422384,15.2994387 68.775872,15.4699789 68.3403507,15.8099766 C67.9048293,16.1505156 67.6870686,16.6222082 67.6870686,17.224919 Z M65.1603171,17.2540191 C65.1603171,16.184759 65.5620155,15.2898289 66.3654122,14.5703116 C67.1686743,13.8509296 68.3160952,13.4909003 69.8071359,13.4909003 C70.1167981,13.4909003 70.4067863,13.5103906 70.6785829,13.5492359 C70.9494362,13.5884872 71.1910482,13.6270618 71.4046315,13.665907 C71.6370802,13.7242426 71.86899,13.7825782 72.101304,13.8410491 C72.1205736,12.9075445 72.0094025,12.2464981 71.7673863,11.8572333 C71.5253701,11.4685098 71.0363518,11.2738774 70.3007358,11.2738774 C69.6226592,11.2738774 68.9890511,11.3370856 68.3984292,11.4635019 C67.8078072,11.5900536 67.3575978,11.7017168 67.0479357,11.7988977 C66.8737002,11.8382843 66.7331529,11.8090489 66.6269676,11.711462 C66.5203781,11.6144165 66.4477463,11.4880002 66.4088027,11.332213 L66.1768929,10.2529371 C66.1375451,10.0587107 66.157219,9.90779613 66.2349714,9.80073477 C66.3119153,9.69380876 66.4185049,9.6209908 66.5543358,9.58173948 C66.6124143,9.56265521 66.7524226,9.51392944 66.9751691,9.43610354 C67.1975114,9.358413 67.483457,9.2805871 67.8320628,9.20276121 C68.1806685,9.12520602 68.5873527,9.05671923 69.0522502,8.99838365 C69.5166087,8.94004806 70.019776,8.9108126 70.5624259,8.9108126 C71.4915471,8.9108126 72.2271632,9.04710942 72.7692741,9.31943238 C73.311385,9.59189068 73.7180692,9.96112379 73.9894615,10.4279438 C74.2603148,10.8946285 74.4345503,11.4444176 74.5118985,12.0760932 C74.5892467,12.7083102 74.6280555,13.384245 74.6280555,14.1034916 L74.6280555,20.3172463 C74.6280555,20.4730334 74.5745586,20.604187 74.4683733,20.7109776 C74.3617838,20.818039 74.2310735,20.8713667 74.0763771,20.8713667 L73.2634129,20.8713667 C73.0496948,20.8713667 72.8855658,20.7356112 72.7692741,20.4628822 L72.4792858,19.6752842 C72.1494107,19.9865878 71.6993361,20.3126444 71.1287923,20.6526421 C70.5573053,20.9926397 69.8167034,21.1631799 68.9067171,21.1631799 C67.8032256,21.1631799 66.9029415,20.818039 66.2057301,20.1274865 C65.5085186,19.4374753 65.1603171,18.4793371 65.1603171,17.2540191 L65.1603171,17.2540191 Z" id="Fill-7" fill="#FFFFFF" mask="url(#mask-2)"></path>
                    <path d="M78.526536,15.0660964 C78.526536,14.2106883 78.6891654,13.4083372 79.0156259,12.6595844 C79.3419529,11.9111023 79.7831086,11.2592597 80.3397605,10.7051393 C80.8960118,10.1506129 81.5382511,9.71316372 82.2676801,9.39225034 C82.9965749,9.07147231 83.7640576,8.9108126 84.5699945,8.9108126 C85.4521722,8.9108126 86.2342087,9.08595469 86.9154364,9.43610354 C87.5963969,9.78598169 88.2056564,10.3016628 88.7428141,10.9820642 C88.8384156,11.118361 88.8770034,11.2642676 88.8579098,11.4195134 C88.8384156,11.5755712 88.7617742,11.7017168 88.6275849,11.7988977 L87.6779787,12.6740668 C87.5052016,12.8301246 87.3615323,12.8737071 87.2464366,12.8052203 C87.1312074,12.7375456 87.0161117,12.6549825 86.901016,12.5573956 C86.6322369,12.2655823 86.3012366,12.0082832 85.9082823,11.7844153 C85.5146604,11.5609535 85.078178,11.4487488 84.5985681,11.4487488 C84.1384524,11.4487488 83.7014359,11.5413278 83.289388,11.7260797 C82.8765389,11.9111023 82.5219053,12.1686722 82.2245526,12.49906 C81.9267992,12.8301246 81.6919346,13.2138401 81.5196916,13.6512893 C81.3470481,14.0890092 81.2603925,14.5512273 81.2603925,15.0369963 C81.2603925,15.5430676 81.3470481,16.0143541 81.5196916,16.4518033 C81.6919346,16.8895232 81.9267992,17.2736448 82.2245526,17.604168 C82.5219053,17.9350972 82.8718657,18.1926671 83.2749676,18.3771483 C83.6779361,18.5623062 84.1094782,18.6542085 84.5699945,18.6542085 C84.9339746,18.6542085 85.250955,18.6106259 85.5197342,18.5230549 C85.7881128,18.4354839 86.023378,18.3288285 86.2245952,18.2020062 C86.4263464,18.0759959 86.6080694,17.9350972 86.7713665,17.7790394 C86.9339959,17.6237936 87.0927532,17.4681418 87.2464366,17.31249 C87.4951875,17.0599281 87.7544866,17.0404378 88.0233993,17.2540191 L88.800362,17.8958459 C89.1262884,18.1685749 89.1933163,18.4406271 89.0015791,18.712544 C88.5414634,19.4519577 87.932204,20.0449233 87.1743349,20.4921177 C86.4163323,20.9394474 85.5382937,21.1631799 84.5410203,21.1631799 C83.7354839,21.1631799 82.9680013,21.0071221 82.2391064,20.6963599 C81.5096775,20.3854624 80.8718444,19.9624956 80.3252066,19.4274595 C79.7785688,18.8926941 79.3419529,18.2510026 79.0156259,17.5019792 C78.6891654,16.7536324 78.526536,15.9412655 78.526536,15.0660964" id="Fill-8" fill="#FFFFFF" mask="url(#mask-2)"></path>
                    <path d="M93.0864288,11.4009494 L91.8808862,11.4009494 C91.7277802,11.4009494 91.598905,11.3463754 91.4935948,11.2368119 C91.3882845,11.127664 91.3358291,10.9931683 91.3358291,10.8337402 L91.3358291,9.49030639 C91.3358291,9.11244398 91.5175592,8.92323574 91.8808862,8.92323574 L93.0864288,8.92323574 L93.0864288,5.60932145 C93.0864288,5.45030897 93.1388842,5.31609025 93.2441945,5.20624975 C93.3491053,5.09710181 93.4782468,5.0421123 93.6314858,5.0421123 L95.2673227,5.01233209 C95.4200292,5.01233209 95.5443778,5.06732159 95.6402354,5.17633102 C95.7356936,5.28617152 95.7834893,5.42039025 95.7834893,5.57940273 L95.7834893,8.92323574 L98.7106081,8.92323574 C99.0736688,8.92323574 99.2557982,9.11244398 99.2557982,9.49030639 L99.2557982,10.8337402 C99.2557982,10.9931683 99.2028103,11.127664 99.0980326,11.2368119 C98.9927223,11.3463754 98.8634477,11.4009494 98.7106081,11.4009494 L95.7834893,11.4009494 L95.7834893,17.3121137 C95.7834893,17.8297353 95.8698943,18.1582873 96.0420386,18.2972154 C96.214316,18.4366976 96.4339897,18.506231 96.7019916,18.506231 C97.0075378,18.506231 97.3330543,18.4418226 97.6773429,18.3120363 C98.0217646,18.1829425 98.2799145,18.0686696 98.4520588,17.968802 C98.6432415,17.8694885 98.7866285,17.8545291 98.8828855,17.9240624 C98.9782106,17.9938728 99.0546304,18.0985883 99.1120118,18.2375165 L99.628711,19.5508931 C99.7625122,19.8694721 99.6761073,20.1084064 99.3705611,20.2675574 C99.2937419,20.3075875 99.1410354,20.3771208 98.9113765,20.4764344 C98.6817176,20.576302 98.4091891,20.675754 98.0936578,20.7750676 C97.7777271,20.8745196 97.4383645,20.9639988 97.0749044,21.043782 C96.7114443,21.1230113 96.3575699,21.1631799 96.0131482,21.1631799 C95.4390676,21.1631799 94.9659037,21.0782717 94.592991,20.9092863 C94.2195457,20.7404394 93.9230528,20.4966572 93.7033791,20.1779397 C93.483306,19.8599147 93.3251409,19.4867617 93.2296827,19.0583422 C93.1339582,18.6306153 93.0864288,18.1478988 93.0864288,17.6106084 L93.0864288,11.4009494" id="Fill-9" fill="#FFFFFF" mask="url(#mask-2)"></path>
                    <path d="M103.031271,19.2279283 C103.031271,18.6859486 103.217749,18.2230862 103.592007,17.8396013 C103.965745,17.456637 104.423938,17.2646994 104.966457,17.2646994 C105.508585,17.2646994 105.971072,17.456637 106.35457,17.8396013 C106.737547,18.2230862 106.929751,18.6859486 106.929751,19.2279283 C106.929751,19.7704286 106.737547,20.2283462 106.35457,20.6020715 C105.971072,20.976057 105.508585,21.1631799 104.966457,21.1631799 C104.423938,21.1631799 103.965745,20.976057 103.592007,20.6020715 C103.217749,20.2283462 103.031271,19.7704286 103.031271,19.2279283" id="Fill-10" fill="#61C2DD" mask="url(#mask-2)"></path>
                    <path d="M111.122161,11.7142501 L109.722903,11.7142501 C109.563931,11.7142501 109.430372,11.6597607 109.321122,11.550367 C109.211872,11.4413882 109.157454,11.3071009 109.157454,11.14792 L109.157454,9.80656833 C109.157454,9.42929156 109.345983,9.24037658 109.722903,9.24037658 L111.122161,9.24037658 L111.122161,5.54408765 C111.122161,4.64999149 111.260968,3.86003368 111.538996,3.17449082 C111.81661,2.48894795 112.198778,1.91279875 112.685086,1.44562832 C113.171256,0.979011087 113.741953,0.621234327 114.396487,0.372574639 C115.051712,0.124329844 115.746161,0 116.480388,0 C116.976502,0 117.457562,0.0497872569 117.924119,0.149085175 C118.390262,0.248521391 118.822152,0.372574639 119.219237,0.521659814 C119.615908,0.670744988 119.963409,0.819553567 120.261188,0.968638742 C120.559105,1.11772392 120.786859,1.24219206 120.945831,1.34121338 C121.065025,1.42101129 121.139608,1.53510709 121.169165,1.68419226 C121.198998,1.83300084 121.173723,1.96728814 121.094582,2.08650096 L120.350411,3.42771434 C120.250967,3.60667187 120.137021,3.70126765 120.00802,3.71094851 C119.878605,3.72118256 119.735102,3.67665062 119.576545,3.57679951 C119.517154,3.537108 119.382905,3.46795904 119.174764,3.36810793 C118.96607,3.26908661 118.718013,3.16453337 118.430592,3.0551397 C118.142343,2.94629922 117.824814,2.84658641 117.477727,2.75710765 C117.130226,2.66762888 116.79778,2.62295865 116.480388,2.62295865 C116.182609,2.62295865 115.885383,2.67786293 115.587603,2.7868417 C115.289824,2.89651197 115.022155,3.07021417 114.783904,3.30850152 C114.545653,3.54706546 114.35671,3.85035283 114.218317,4.21781044 C114.079234,4.58568295 114.009761,5.02768316 114.009761,5.54408765 L114.009761,9.24037658 L121.95781,9.24037658 C122.116782,9.24037658 122.250341,9.29514256 122.359591,9.40412133 C122.468427,9.513515 122.523673,9.6478023 122.523673,9.80656833 L122.523673,20.5969882 C122.523673,20.7561691 122.468427,20.8901798 122.359591,20.9992969 C122.250341,21.1086905 122.116782,21.1631799 121.95781,21.1631799 L120.261188,21.1631799 C120.102216,21.1631799 119.968105,21.1086905 119.859407,20.9992969 C119.750157,20.8901798 119.695739,20.7561691 119.695739,20.5969882 L119.695739,11.7142501 L114.009761,11.7142501 L114.009761,20.5969882 C114.009761,20.8157755 113.915428,20.9648607 113.727037,21.0439671 C113.538094,21.1234884 113.354537,21.1631799 113.176367,21.1631799 L111.687609,21.1631799 C111.528776,21.1631799 111.394664,21.1086905 111.285829,20.9992969 C111.176579,20.8901798 111.122161,20.7561691 111.122161,20.5969882 L111.122161,11.7142501" id="Fill-11" fill="#61C2DD" mask="url(#mask-2)"></path>
                    <path d="M126.501976,11.4009494 L125.296567,11.4009494 C125.143194,11.4009494 125.014452,11.3463754 124.909142,11.2368119 C124.803832,11.127664 124.751376,10.9931683 124.751376,10.8337402 L124.751376,9.49030639 C124.751376,9.11244398 124.933106,8.92323574 125.296567,8.92323574 L126.501976,8.92323574 L126.501976,5.60932145 C126.501976,5.45030897 126.554431,5.31609025 126.659742,5.20624975 C126.764653,5.09710181 126.893927,5.0421123 127.047166,5.0421123 L128.68287,5.01233209 C128.83571,5.01233209 128.959925,5.06732159 129.055783,5.17633102 C129.151241,5.28617152 129.199037,5.42039025 129.199037,5.57940273 L129.199037,8.92323574 L132.126155,8.92323574 C132.489216,8.92323574 132.671345,9.11244398 132.671345,9.49030639 L132.671345,10.8337402 C132.671345,10.9931683 132.618491,11.127664 132.513713,11.2368119 C132.408403,11.3463754 132.278995,11.4009494 132.126155,11.4009494 L129.199037,11.4009494 L129.199037,17.3121137 C129.199037,17.8297353 129.285442,18.1582873 129.457586,18.2972154 C129.62973,18.4366976 129.849537,18.506231 130.117539,18.506231 C130.423085,18.506231 130.748601,18.4418226 131.093023,18.3120363 C131.437445,18.1829425 131.695462,18.0686696 131.867739,17.968802 C132.058922,17.8694885 132.202176,17.8545291 132.298433,17.9240624 C132.393758,17.9938728 132.470178,18.0985883 132.527559,18.2375165 L133.044258,19.5508931 C133.178059,19.8694721 133.091654,20.1084064 132.786108,20.2675574 C132.709289,20.3075875 132.556583,20.3771208 132.326924,20.4764344 C132.097398,20.576302 131.824736,20.675754 131.509338,20.7750676 C131.193407,20.8745196 130.853912,20.9639988 130.490452,21.043782 C130.127125,21.1230113 129.773117,21.1631799 129.428695,21.1631799 C128.854615,21.1631799 128.381318,21.0782717 128.008538,20.9092863 C127.635093,20.7404394 127.3386,20.4966572 127.118926,20.1779397 C126.898853,19.8599147 126.740555,19.4867617 126.64523,19.0583422 C126.549505,18.6306153 126.501976,18.1478988 126.501976,17.6106084 L126.501976,11.4009494" id="Fill-12" fill="#61C2DD" mask="url(#mask-2)"></path>
                </g>
            </g>
        </g>
    </g>
</svg>