<?xml version="1.0" encoding="UTF-8"?>
<svg width="177px" height="28px" viewBox="0 0 177 28" version="1.1" xmlns="http://www.w3.org/2000/svg" xmlns:xlink="http://www.w3.org/1999/xlink">
    <!-- Generator: Sketch 54.1 (76490) - https://sketchapp.com -->
    <title>Contract.fit_zonder vlammetje</title>
    <desc>Created with Sketch.</desc>
    <defs>
        <polygon id="path-1" points="4.09408486e-16 0 176.105263 0 176.105263 28 4.09408486e-16 28"></polygon>
    </defs>
    <g id="Symbols" stroke="none" stroke-width="1" fill="none" fill-rule="evenodd">
        <g id="Web/menu1200" transform="translate(-6.000000, -16.000000)">
            <g id="Contract.fit_zonder-vlammetje" transform="translate(6.000000, 16.000000)">
                <mask id="mask-2" fill="white">
                    <use xlink:href="#path-1"></use>
                </mask>
                <g id="Clip-2"></g>
                <path d="M0,19.9332378 C0,18.8014879 0.215347924,17.7399352 0.64710373,16.7492959 C1.07832956,15.7590148 1.66183587,14.8965927 2.39850596,14.1634623 C3.13429276,13.4297947 3.98490823,12.8510264 4.94982239,12.4264411 C5.91420658,12.0020349 6.92964535,11.7894737 7.99543209,11.7894737 C9.16262137,11.7894737 10.1971394,12.0211959 11.0986328,12.4844612 C11.9994195,12.9473684 12.8055168,13.6296417 13.516218,14.5298484 C13.6434128,14.7101763 13.6937608,14.9032185 13.6686751,15.1086167 C13.6434128,15.3150895 13.5414803,15.4819867 13.3646441,15.6105621 L12.1080651,16.7684569 C11.8794677,16.9749296 11.6888522,17.0325915 11.536395,16.9419799 C11.3841145,16.8524427 11.231834,16.7432074 11.0800835,16.6140948 C10.7237613,16.2280105 10.2859991,15.8875901 9.76591355,15.5914012 C9.24547467,15.2957494 8.66779813,15.1472968 8.0337672,15.1472968 C7.4244686,15.1472968 6.84696871,15.2697836 6.30109087,15.5142201 C5.75538969,15.7590148 5.28582875,16.0997933 4.8922314,16.5369137 C4.4988107,16.9749296 4.18824331,17.4826054 3.95964592,18.0613737 C3.73104854,18.6405001 3.61710316,19.252039 3.61710316,19.8947368 C3.61710316,20.5642958 3.73104854,21.1878327 3.95964592,21.766601 C4.18824331,22.3457274 4.4988107,22.8539404 4.8922314,23.29124 C5.28582875,23.7290768 5.74938327,24.0698553 6.28254162,24.3139336 C6.81517,24.5589073 7.38666347,24.6804988 7.99543209,24.6804988 C8.47771251,24.6804988 8.89639551,24.6228369 9.25201108,24.5069758 C9.60709666,24.3911147 9.91837069,24.2500041 10.1851265,24.0822114 C10.451529,23.9154932 10.6926693,23.7290768 10.9085472,23.5226041 C11.1238951,23.3172058 11.3332366,23.1112703 11.536395,22.9053348 C11.8663949,22.5711821 12.2089377,22.5453953 12.5645533,22.8279747 L13.5925349,23.6771452 C14.0242907,24.03798 14.1124438,24.3979195 13.8592907,24.7576798 C13.2499921,25.735963 12.4438948,26.5204877 11.4417055,27.1121494 C10.4382796,27.7039901 9.27709672,28 7.95762696,28 C6.89131024,28 5.87587147,27.7935273 4.91148728,27.3823726 C3.94657312,26.9710388 3.10320069,26.4114315 2.37925008,25.7035506 C1.65600611,24.9960278 1.07832956,24.1470363 0.64710373,23.1560389 C0.215347924,22.1659368 0,21.0911326 0,19.9332378" id="Fill-1" fill="#276AA4" mask="url(#mask-2)"></path>
                <path d="M21.0930519,19.8560568 C21.0930519,20.5256158 21.2082023,21.1491527 21.4381476,21.7279209 C21.6679152,22.3070474 21.9737389,22.8152604 22.3568626,23.252739 C22.7399863,23.6903967 23.1931243,24.03798 23.7168096,24.2947727 C24.2397841,24.5522816 24.8080725,24.6804988 25.4211415,24.6804988 C26.0340328,24.6804988 26.601788,24.5522816 27.1252956,24.2947727 C27.6484479,24.03798 28.1021189,23.6903967 28.4852426,23.252739 C28.8678332,22.8152604 29.1741901,22.3070474 29.4041354,21.7279209 C29.633903,21.1491527 29.749231,20.5256158 29.749231,19.8560568 C29.749231,19.2133589 29.633903,18.60182 29.4041354,18.0230518 C29.1741901,17.4439253 28.8678332,16.9419799 28.4852426,16.5177528 C28.1021189,16.0929884 27.6484479,15.7590148 27.1252956,15.5142201 C26.601788,15.2697836 26.0340328,15.1472968 25.4211415,15.1472968 C24.8080725,15.1472968 24.2397841,15.2697836 23.7168096,15.5142201 C23.1931243,15.7590148 22.7399863,16.0929884 22.3568626,16.5177528 C21.9737389,16.9419799 21.6679152,17.4439253 21.4381476,18.0230518 C21.2082023,18.60182 21.0930519,19.2133589 21.0930519,19.8560568 Z M17.6842105,19.8560568 C17.6842105,18.7753431 17.8882115,17.74674 18.2972795,16.7684569 C18.7051037,15.79089 19.2547334,14.9350937 19.9442139,14.2019633 C20.633339,13.4684748 21.4500536,12.883618 22.3954238,12.4457812 C23.3397278,12.0083025 24.3483596,11.7894737 25.4211415,11.7894737 C26.4930349,11.7894737 27.5018444,12.0083025 28.4465038,12.4457812 C29.3908078,12.883618 30.2082331,13.4684748 30.8978913,14.2019633 C31.5873719,14.9350937 32.1357576,15.79089 32.5448257,16.7684569 C32.9526499,17.74674 33.1578947,18.7753431 33.1578947,19.8560568 C33.1578947,20.9627363 32.9526499,22.0115747 32.5448257,23.0016768 C32.1357576,23.9926742 31.5873719,24.85438 30.8978913,25.5876895 C30.2082331,26.321178 29.3908078,26.906572 28.4465038,27.3436925 C27.5018444,27.7811711 26.4930349,28 25.4211415,28 C24.3483596,28 23.3397278,27.7811711 22.3954238,27.3436925 C21.4500536,26.906572 20.633339,26.321178 19.9442139,25.5876895 C19.2547334,24.85438 18.7051037,23.9926742 18.2972795,23.0016768 C17.8882115,22.0115747 17.6842105,20.9627363 17.6842105,19.8560568 L17.6842105,19.8560568 Z" id="Fill-3" fill="#276AA4" mask="url(#mask-2)"></path>
                <path d="M38.3157895,12.9361784 C38.3157895,12.7255854 38.3861264,12.5474618 38.5273359,12.4023581 C38.6680098,12.2578047 38.8413529,12.1851611 39.0466512,12.1851611 L40.1625809,12.1851611 C40.4958781,12.1851611 40.7013548,12.3432893 40.778297,12.6591788 L41.2401288,14.0036355 C41.317071,13.924388 41.4966623,13.7666266 41.7790813,13.5294343 C42.0607861,13.2920586 42.4330007,13.0420252 42.8948325,12.7778667 C43.3564857,12.5148089 43.9007938,12.2838536 44.5298989,12.0859182 C45.157933,11.8885331 45.8573751,11.7894737 46.6269757,11.7894737 C47.8064586,11.7894737 48.8011731,11.9872257 49.608977,12.3827296 C50.4167809,12.7778667 51.0769486,13.3184744 51.5901941,14.0036355 C52.1030827,14.6893469 52.4751187,15.486592 52.7061239,16.3957374 C52.9369505,17.3050664 53.0526316,18.273831 53.0526316,19.3016643 L53.0526316,27.2489827 C53.0526316,27.4601261 52.9812235,27.6378827 52.8405496,27.7826196 C52.6993401,27.9277233 52.5267111,28 52.3212343,28 L50.1284708,28 C49.922994,28 49.7496509,27.9277233 49.608977,27.7826196 C49.4677675,27.6378827 49.3974306,27.4601261 49.3974306,27.2489827 L49.3974306,19.1435361 C49.3974306,17.878327 49.1142976,16.9099293 48.5507093,16.2376092 C47.9858714,15.5656561 47.2039529,15.2292209 46.2033473,15.2292209 C45.5881667,15.2292209 45.0301125,15.3282803 44.5298989,15.5260323 C44.0298639,15.7234174 43.593025,15.9545561 43.2215244,16.2179808 C42.8493098,16.4817724 42.5542159,16.7453806 42.3365998,17.0086218 C42.1182696,17.27223 41.9838439,17.4701654 41.9329657,17.6015109 L41.9329657,27.2489827 C41.9329657,27.7499666 41.6378718,28 41.0480411,28 L39.0466512,28 C38.8413529,28 38.6680098,27.9277233 38.5273359,27.7826196 C38.3861264,27.6378827 38.3157895,27.4601261 38.3157895,27.2489827 L38.3157895,12.9361784" id="Fill-4" fill="#276AA4" mask="url(#mask-2)"></path>
                <path d="M59.7893361,15.0840556 L58.1950135,15.0840556 C57.9920901,15.0840556 57.8212258,15.0118514 57.6824205,14.8668931 C57.5430868,14.7224847 57.4736842,14.5445397 57.4736842,14.3336081 L57.4736842,12.5561744 C57.4736842,12.0562426 57.7141273,11.8059102 58.1950135,11.8059102 L59.7893361,11.8059102 L59.7893361,7.42142728 C59.7893361,7.2110454 59.8587387,7.03346697 59.9980724,6.88814221 C60.1374061,6.74373374 60.307742,6.67097973 60.5104892,6.67097973 L62.6748294,6.63157895 C62.876872,6.63157895 63.041395,6.70433296 63.1682221,6.84855816 C63.2948731,6.99388293 63.3582866,7.17146135 63.3582866,7.38184323 L63.3582866,11.8059102 L67.2305654,11.8059102 C67.7114515,11.8059102 67.9517185,12.0562426 67.9517185,12.5561744 L67.9517185,14.3336081 C67.9517185,14.5445397 67.8819636,14.7224847 67.7431583,14.8668931 C67.6038246,15.0118514 67.4327842,15.0840556 67.2305654,15.0840556 L63.3582866,15.0840556 L63.3582866,22.9048369 C63.3582866,23.5896775 63.4719026,24.024369 63.6998391,24.2081782 C63.9275995,24.3927205 64.2184211,24.4847168 64.5730087,24.4847168 C64.9777986,24.4847168 65.4084823,24.3995011 65.8640031,24.227787 C66.3197,24.0569892 66.6612525,23.9058001 66.889189,23.77367 C67.1414341,23.642273 67.3316748,23.622481 67.4585019,23.7144772 C67.5846244,23.80684 67.6862623,23.9453842 67.7621824,24.1291934 L68.4458158,25.8668597 C68.6223169,26.2883565 68.5087009,26.6044791 68.1037349,26.8150442 C68.0026255,26.8680062 67.7998782,26.9600025 67.4967262,27.0913995 C67.1928695,27.2235296 66.832293,27.3551099 66.4142919,27.486507 C65.9968193,27.6180873 65.5471114,27.7364729 65.0669298,27.8420303 C64.5855152,27.9468548 64.1171356,28 63.6621433,28 C62.9025897,28 62.2758524,27.8876619 61.7826358,27.6640854 C61.289243,27.4406921 60.8962551,27.1181554 60.6056096,26.6964754 C60.3144356,26.2757116 60.1056993,25.7820106 59.9794007,25.2151891 C59.8520451,24.6492838 59.7893361,24.0106245 59.7893361,23.299761 L59.7893361,15.0840556" id="Fill-5" fill="#276AA4" mask="url(#mask-2)"></path>
                <path d="M73.6842105,12.9361784 C73.6842105,12.7255854 73.7546629,12.5474618 73.896104,12.4023581 C74.0368299,12.2578047 74.2104573,12.1851611 74.4162711,12.1851611 L75.5340315,12.1851611 C75.867339,12.1851611 76.086385,12.3697052 76.1890237,12.7384264 L76.6126318,14.0826996 C76.689879,13.97777 76.8313201,13.8000133 77.0371339,13.5490628 C77.2422325,13.298846 77.5311944,13.0420252 77.9040196,12.7778667 C78.2761295,12.5148089 78.7326393,12.2838536 79.272297,12.0859182 C79.8121336,11.8885331 80.4281446,11.7894737 81.122118,11.7894737 C81.4815322,11.7894737 81.8541786,11.8162564 82.2396995,11.8685378 C82.6252204,11.9219198 82.958528,12.007221 83.2419466,12.125542 C83.5242924,12.2442299 83.7361859,12.396121 83.877627,12.5804816 C84.0183529,12.7652091 84.0378435,12.989377 83.9353836,13.2524348 L83.0107414,15.1895971 C82.9075662,15.4011073 82.7727412,15.5326362 82.6059086,15.5852845 C82.4383608,15.6384831 82.2652698,15.6247248 82.0855627,15.5456607 C81.9568173,15.4933794 81.7704941,15.4337603 81.5269507,15.3679041 C81.2823345,15.3024148 81.0316386,15.2688446 80.7753995,15.2688446 C80.209635,15.2688446 79.7216542,15.3546962 79.310563,15.5260323 C78.8996506,15.6975519 78.5529321,15.8953038 78.2700499,16.1189214 C77.9871677,16.3430892 77.7625785,16.5608365 77.5955671,16.7712461 C77.4285557,16.9827563 77.3321755,17.1271263 77.3066052,17.2063738 L77.3066052,27.2489827 C77.3066052,27.5918384 77.2100462,27.802248 77.0176433,27.8814956 C76.8252405,27.9605597 76.5745446,28 76.2660921,28 L74.4162711,28 C74.2104573,28 74.0368299,27.9277233 73.896104,27.7826196 C73.7546629,27.6378827 73.6842105,27.4601261 73.6842105,27.2489827 L73.6842105,12.9361784" id="Fill-6" fill="#276AA4" mask="url(#mask-2)"></path>
                <path d="M89.5535515,22.7894737 C89.5535515,23.4841031 89.7648194,24.0698553 90.187177,24.5456558 C90.6104259,25.0218145 91.1798688,25.2596252 91.8972883,25.2596252 C92.2814928,25.2596252 92.6525042,25.1958748 93.0115706,25.0665831 C93.3704586,24.9383659 93.703317,24.777199 94.0108589,24.5841568 C94.3184008,24.3911147 94.5870766,24.1855373 94.8175993,23.9667085 C95.0483003,23.7482377 95.2274769,23.5360346 95.3558422,23.3299201 L95.3558422,20.8597685 C95.2274769,20.7825875 94.919935,20.6606378 94.4333948,20.4928452 C93.9466763,20.3259479 93.3578004,20.241962 92.6658756,20.241962 C91.7434282,20.241962 90.9940956,20.4675957 90.417878,20.9174304 C89.8416603,21.3679815 89.5535515,21.9920556 89.5535515,22.7894737 Z M86.2105263,22.8279747 C86.2105263,21.4132873 86.7419944,20.2292477 87.8049306,19.2772885 C88.8676884,18.3255083 90.3857866,17.8491706 92.358512,17.8491706 C92.7682113,17.8491706 93.151881,17.8749573 93.5114822,17.9263516 C93.8698353,17.9782832 94.1895007,18.0293194 94.4720826,18.0807137 C94.7796246,18.1578947 95.0864533,18.2350758 95.393817,18.3124359 C95.4193117,17.0773601 95.2722265,16.202761 94.9520263,15.6877432 C94.6318261,15.1734416 93.9848293,14.9159327 93.0115706,14.9159327 C92.1144396,14.9159327 91.2761427,14.9995605 90.4947189,15.1668159 C89.713295,15.3342504 89.1176442,15.4819867 88.7079449,15.6105621 C88.4774222,15.6626728 88.2914708,15.6239927 88.1509821,15.4948801 C88.0099585,15.3664838 87.9138628,15.1992284 87.8623384,14.9931138 L87.5555096,13.5651749 C87.5034503,13.3082032 87.52948,13.1085353 87.6323505,12.9668875 C87.7341513,12.8254188 87.8751749,12.7290768 88.0548864,12.6771452 C88.1317273,12.6518957 88.3169656,12.587429 88.6116709,12.4844612 C88.9058415,12.3816726 89.2841626,12.2787048 89.7453863,12.1757371 C90.20661,12.0731275 90.7446747,11.9825158 91.3597585,11.9053348 C91.9741292,11.8281537 92.639846,11.7894737 93.3578004,11.7894737 C94.5870766,11.7894737 95.5603353,11.9698016 96.2775765,12.3300991 C96.9948177,12.6905758 97.5328824,13.1790906 97.8919487,13.7967181 C98.2503019,14.4141664 98.4808246,15.1415664 98.5831603,15.9773064 C98.685496,16.8137627 98.7368421,17.70806 98.7368421,18.6596611 L98.7368421,26.8807853 C98.7368421,27.0868999 98.6660629,27.2604229 98.5255742,27.4017126 C98.3845506,27.5433604 98.211614,27.6139157 98.0069426,27.6139157 L96.9313482,27.6139157 C96.648588,27.6139157 96.4314366,27.4343041 96.2775765,27.0734693 L95.8939068,26.0314357 C95.4574648,26.4433067 94.8619923,26.8746968 94.1071329,27.3245316 C93.3510255,27.7743663 92.3711702,28 91.1672105,28 C89.7072333,28 88.5161101,27.5433604 87.5936626,26.6297231 C86.6712152,25.7168021 86.2105263,24.4491347 86.2105263,22.8279747 L86.2105263,22.8279747 Z" id="Fill-7" fill="#276AA4" mask="url(#mask-2)"></path>
                <path d="M103.894737,19.9332378 C103.894737,18.8014879 104.109904,17.7399352 104.541829,16.7492959 C104.973576,15.7590148 105.557248,14.8965927 106.293728,14.1634623 C107.029678,13.4297947 107.879394,12.8510264 108.844467,12.4264411 C109.808833,12.0020349 110.824253,11.7894737 111.89055,11.7894737 C113.057718,11.7894737 114.092393,12.0211959 114.993693,12.4844612 C115.89464,12.9473684 116.700722,13.6296417 117.41141,14.5298484 C117.537896,14.7101763 117.58895,14.9032185 117.563688,15.1086167 C117.537896,15.3150895 117.436495,15.4819867 117.258956,15.6105621 L116.002577,16.7684569 C115.773984,16.9749296 115.583902,17.0325915 115.431624,16.9419799 C115.27917,16.8524427 115.126892,16.7432074 114.974614,16.6140948 C114.619005,16.2280105 114.181075,15.8875901 113.661175,15.5914012 C113.140393,15.2957494 112.562904,15.1472968 111.928355,15.1472968 C111.319597,15.1472968 110.741402,15.2697836 110.19624,15.5142201 C109.650019,15.7590148 109.180821,16.0997933 108.787407,16.5369137 C108.393464,16.9749296 108.082726,17.4826054 107.854839,18.0613737 C107.626423,18.6405001 107.511773,19.252039 107.511773,19.8947368 C107.511773,20.5642958 107.626423,21.1878327 107.854839,21.766601 C108.082726,22.3457274 108.393464,22.8539404 108.787407,23.29124 C109.180821,23.7290768 109.643837,24.0698553 110.177162,24.3139336 C110.71031,24.5589073 111.281263,24.6804988 111.89055,24.6804988 C112.372115,24.6804988 112.791497,24.6228369 113.147106,24.5069758 C113.502185,24.3911147 113.813453,24.2500041 114.079674,24.0822114 C114.346601,23.9154932 114.587031,23.7290768 114.803081,23.5226041 C115.018248,23.3172058 115.228293,23.1112703 115.431624,22.9053348 C115.760734,22.5711821 116.103801,22.5453953 116.459586,22.8279747 L117.487549,23.6771452 C117.918767,24.03798 118.007448,24.3979195 117.75377,24.7576798 C117.145012,25.735963 116.33893,26.5204877 115.33623,27.1121494 C114.333352,27.7039901 113.171661,28 111.852216,28 C110.786449,28 109.771029,27.7935273 108.806663,27.3823726 C107.84159,26.9710388 106.997703,26.4114315 106.274473,25.7035506 C105.551242,24.9960278 104.973576,24.1470363 104.541829,23.1560389 C104.109904,22.1659368 103.894737,21.0911326 103.894737,19.9332378" id="Fill-8" fill="#276AA4" mask="url(#mask-2)"></path>
                <path d="M123.158241,15.0840556 L121.563244,15.0840556 C121.360677,15.0840556 121.190169,15.0118514 121.050838,14.8668931 C120.911507,14.7224847 120.842105,14.5445397 120.842105,14.3336081 L120.842105,12.5561744 C120.842105,12.0562426 121.082544,11.8059102 121.563244,11.8059102 L123.158241,11.8059102 L123.158241,7.42142728 C123.158241,7.2110454 123.227642,7.03346697 123.366973,6.88814221 C123.505776,6.74373374 123.676637,6.67097973 123.87938,6.67097973 L126.043678,6.63157895 C126.245717,6.63157895 126.410237,6.70433296 126.537061,6.84855816 C126.663357,6.99388293 126.726594,7.17146135 126.726594,7.38184323 L126.726594,11.8059102 L130.599326,11.8059102 C131.079674,11.8059102 131.320641,12.0562426 131.320641,12.5561744 L131.320641,14.3336081 C131.320641,14.5445397 131.250535,14.7224847 131.111909,14.8668931 C130.972578,15.0118514 130.801541,15.0840556 130.599326,15.0840556 L126.726594,15.0840556 L126.726594,22.9048369 C126.726594,23.5896775 126.840912,24.024369 127.068668,24.2081782 C127.2966,24.3927205 127.58724,24.4847168 127.94182,24.4847168 C128.346074,24.4847168 128.77675,24.3995011 129.232261,24.227787 C129.68795,24.0569892 130.029495,23.9058001 130.257251,23.77367 C130.510196,23.642273 130.699905,23.622481 130.827258,23.7144772 C130.953378,23.80684 131.054485,23.9453842 131.130404,24.1291934 L131.814024,25.8668597 C131.99105,26.2883565 131.876732,26.6044791 131.472478,26.8150442 C131.370842,26.8680062 131.168804,26.9600025 130.864953,27.0913995 C130.561102,27.2235296 130.200533,27.3551099 129.783068,27.486507 C129.365075,27.6180873 128.916081,27.7364729 128.435204,27.8420303 C127.954327,27.9468548 127.486132,28 127.030444,28 C126.270906,28 125.644885,27.8876619 125.151502,27.6640854 C124.657414,27.4406921 124.265138,27.1181554 123.974498,26.6964754 C123.68333,26.2757116 123.474069,25.7820106 123.347773,25.2151891 C123.221125,24.6492838 123.158241,24.0106245 123.158241,23.299761 L123.158241,15.0840556" id="Fill-9" fill="#276AA4" mask="url(#mask-2)"></path>
                <path d="M136.315789,25.4395604 C136.315789,24.7224927 136.56251,24.1101013 137.057674,23.6027307 C137.552148,23.0960488 138.158362,22.8421053 138.876142,22.8421053 C139.593406,22.8421053 140.205301,23.0960488 140.712689,23.6027307 C141.219388,24.1101013 141.473684,24.7224927 141.473684,25.4395604 C141.473684,26.1573168 141.219388,26.7631658 140.712689,27.257624 C140.205301,27.7524266 139.593406,28 138.876142,28 C138.158362,28 137.552148,27.7524266 137.057674,27.257624 C136.56251,26.7631658 136.315789,26.1573168 136.315789,25.4395604" id="Fill-10" fill="#61C2DD" mask="url(#mask-2)"></path>
                <path d="M147.020463,15.4985689 L145.169171,15.4985689 C144.958843,15.4985689 144.782138,15.4264765 144.637594,15.281743 C144.49305,15.1375583 144.421053,14.9598892 144.421053,14.7492844 L144.421053,12.9746056 C144.421053,12.4754486 144.670486,12.2255042 145.169171,12.2255042 L147.020463,12.2255042 L147.020463,7.33511952 C147.020463,6.15218329 147.204112,5.10702756 147.571958,4.2000183 C147.939256,3.29300903 148.444884,2.53073334 149.088295,1.9126423 C149.731524,1.29528315 150.486586,0.821925686 151.352569,0.492935841 C152.219465,0.164494922 153.138258,0 154.109679,0 C154.766065,0 155.402532,0.0658711591 156.019812,0.197247527 C156.636543,0.328806869 157.207957,0.492935841 157.733321,0.690183368 C158.258136,0.887430894 158.717899,1.08431247 159.111876,1.28156 C159.506036,1.47880752 159.807367,1.64348542 160.017695,1.77449584 C160.175395,1.88007267 160.274073,2.03102741 160.313178,2.22827493 C160.352649,2.42515651 160.319208,2.60282566 160.214501,2.76055049 L159.229923,4.53504633 C159.098353,4.77181655 158.947597,4.89697176 158.776922,4.90978004 C158.605699,4.92332022 158.415837,4.86440213 158.206057,4.73229386 C158.127481,4.67977991 157.949862,4.58829219 157.67448,4.45618392 C157.398367,4.3251735 157.070174,4.18684407 156.689902,4.04211049 C156.308533,3.89810882 155.888425,3.76618352 155.429211,3.64779841 C154.969449,3.5294133 154.529605,3.47031223 154.109679,3.47031223 C153.715702,3.47031223 153.322456,3.54295349 152.928478,3.68713813 C152.534501,3.83223766 152.18036,4.06205481 151.865141,4.3773215 C151.549923,4.69295414 151.299941,5.09421928 151.11684,5.58038503 C150.932826,6.06709971 150.84091,6.65188922 150.84091,7.33511952 L150.84091,12.2255042 L161.356597,12.2255042 C161.566925,12.2255042 161.74363,12.2979624 161.888174,12.4421471 C162.032169,12.5868807 162.105263,12.7645498 162.105263,12.9746056 L162.105263,27.2508985 C162.105263,27.4615033 162.032169,27.6388065 161.888174,27.7831741 C161.74363,27.9279077 161.566925,28 161.356597,28 L159.111876,28 C158.901548,28 158.724112,27.9279077 158.580299,27.7831741 C158.435755,27.6388065 158.363757,27.4615033 158.363757,27.2508985 L158.363757,15.4985689 L150.84091,15.4985689 L150.84091,27.2508985 C150.84091,27.5403657 150.716102,27.7376132 150.466851,27.8422752 C150.216869,27.947486 149.974014,28 149.738285,28 L147.768581,28 C147.558435,28 147.380999,27.9279077 147.237004,27.7831741 C147.09246,27.6388065 147.020463,27.4615033 147.020463,27.2508985 L147.020463,15.4985689" id="Fill-11" fill="#61C2DD" mask="url(#mask-2)"></path>
                <path d="M167.368767,15.0840556 L165.773947,15.0840556 C165.571027,15.0840556 165.400695,15.0118514 165.261364,14.8668931 C165.122033,14.7224847 165.052632,14.5445397 165.052632,14.3336081 L165.052632,12.5561744 C165.052632,12.0562426 165.29307,11.8059102 165.773947,11.8059102 L167.368767,11.8059102 L167.368767,7.42142728 C167.368767,7.2110454 167.438168,7.03346697 167.577499,6.88814221 C167.716302,6.74373374 167.887339,6.67097973 168.090082,6.67097973 L170.254204,6.63157895 C170.456419,6.63157895 170.620763,6.70433296 170.747587,6.84855816 C170.873884,6.99388293 170.93712,7.17146135 170.93712,7.38184323 L170.93712,11.8059102 L174.809852,11.8059102 C175.2902,11.8059102 175.531167,12.0562426 175.531167,12.5561744 L175.531167,14.3336081 C175.531167,14.5445397 175.461238,14.7224847 175.322611,14.8668931 C175.18328,15.0118514 175.012067,15.0840556 174.809852,15.0840556 L170.93712,15.0840556 L170.93712,22.9048369 C170.93712,23.5896775 171.051438,24.024369 171.279194,24.2081782 C171.50695,24.3927205 171.797766,24.4847168 172.152347,24.4847168 C172.5566,24.4847168 172.987276,24.3995011 173.442964,24.227787 C173.898652,24.0569892 174.240022,23.9058001 174.467954,23.77367 C174.720899,23.642273 174.910431,23.622481 175.037784,23.7144772 C175.163904,23.80684 175.265012,23.9453842 175.34093,24.1291934 L176.02455,25.8668597 C176.201577,26.2883565 176.087258,26.6044791 175.683005,26.8150442 C175.581369,26.8680062 175.37933,26.9600025 175.075479,27.0913995 C174.771805,27.2235296 174.411059,27.3551099 173.99377,27.486507 C173.575778,27.6180873 173.126607,27.7364729 172.64573,27.8420303 C172.165029,27.9468548 171.696659,28 171.240971,28 C170.481432,28 169.855235,27.8876619 169.362028,27.6640854 C168.86794,27.4406921 168.475665,27.1181554 168.185025,26.6964754 C167.893856,26.2757116 167.68442,25.7820106 167.558299,25.2151891 C167.431651,24.6492838 167.368767,24.0106245 167.368767,23.299761 L167.368767,15.0840556" id="Fill-12" fill="#61C2DD" mask="url(#mask-2)"></path>
            </g>
        </g>
    </g>
</svg>